<svg xmlns="http://www.w3.org/2000/svg" fill="none" viewBox="0 0 144 144"><path fill="#DDE1E7" d="M0 0h144v144H0z"/><path stroke="#FFF" stroke-opacity=".08" d="M.5.5h143v143H.5z"/><path d="M55.68 65.232l7.03-5.599v-2.11l-8.084 6.654 1.053 1.055z" fill="#855CFF"/><path d="M62.707 58.62v1.01l-5.386 4.294-2.152.73h-.072l-.193-.705.947-.78h1.205l5.65-4.55z" fill="url(#prefix__prefix__paint0_radial_32818_103238)"/><path d="M88.25 65.232l-7.031-5.599v-2.11l8.083 6.654-1.053 1.055z" fill="#855CFF"/><path d="M81.222 58.62v1.01l5.385 4.294 2.153.73h.072l.161-.73-.915-.755h-1.209l-5.647-4.55z" fill="url(#prefix__prefix__paint1_radial_32818_103238)"/><path d="M38.432 63.933h67.052a2.18 2.18 0 012.18 2.184v51.989H36.252V66.117a2.186 2.186 0 012.18-2.184z" fill="#63F"/><path d="M104.359 69.564v46.758H38.915V69.564a2.402 2.402 0 012.402-2.41h60.631a2.396 2.396 0 011.705.704 2.421 2.421 0 01.706 1.706z" fill="#A385FF"/><path d="M104.359 69.564v6.968H38.915v-6.968a2.402 2.402 0 012.402-2.41h60.631a2.396 2.396 0 011.705.704 2.421 2.421 0 01.706 1.706z" fill="url(#prefix__prefix__paint2_radial_32818_103238)"/><path d="M81.218 57.523H62.71v2.11h18.51v-2.11z" fill="#FFDE82"/><path d="M81.218 58.62H62.71v1.013h18.51V58.62z" fill="url(#prefix__prefix__paint3_radial_32818_103238)"/><path d="M59.652 82.21l-.655-3.77a.405.405 0 00-.469-.333l-.217.038a.407.407 0 01-.47-.331l-.088-.506a.405.405 0 00-.469-.33l-29.663 5.149a.405.405 0 00-.332.469l.088.505a.405.405 0 01-.332.471l-.204.035a.408.408 0 00-.331.471l.724 4.171 1.006-.174 2.4 13.832a.406.406 0 01-.33.47l-.606.105.69 3.974 32.097-5.571a.408.408 0 00.33-.47l-.55-3.17a.404.404 0 00-.47-.332l-.216.037a.407.407 0 01-.47-.331l-2.332-13.431a.407.407 0 01.331-.47l.217-.038a.406.406 0 00.32-.47z" fill="#F9B6A1"/><path d="M47.691 86.643l-7.773 1.35 2.832 16.317 7.773-1.349-2.832-16.318z" fill="#F09176"/><path d="M27.236 88.249l8.748-1.519a1.22 1.22 0 011.41.993l2.054 11.83a1.22 1.22 0 01-.993 1.41l-8.749 1.519-2.47-14.233zM50.96 84.13l8.053-1.397 2.472 14.24-8.054 1.398a1.22 1.22 0 01-1.41-.993l-2.053-11.83a1.22 1.22 0 01.992-1.418z" fill="#DCF5F3"/><path d="M58.49 75.52l-32.487 5.64 1.043 6.007 32.487-5.639-1.043-6.008z" fill="url(#prefix__prefix__paint4_radial_32818_103238)"/><path d="M47.9 85.376l-8.603 1.493.207 1.194 8.602-1.493-.207-1.194z" fill="#D64123"/><path d="M37.69 89.425l-.296-1.701a1.219 1.219 0 00-1.41-.993l-1.763.306-4.515 11.359.69 3.974 2.578-.447 4.715-12.498zm22.125-2.072l-.802-4.62-2.128.368-5.383 11.29.517 2.98a1.22 1.22 0 001.41.992l1.401-.243 4.985-10.767z" fill="#FFF"/><path d="M42.53 96.413a.647.647 0 10-.22-1.276.647.647 0 00.22 1.276z" fill="#D64123"/><path d="M34.071 100.752l3.162-8.299.146.846-2.515 7.316-.793.137zM55.83 97.51l3.645-8.384.147.845-2.997 7.4-.795.138z" fill="#FFF"/><path d="M47.691 86.643l-7.773 1.35.198 1.14 7.773-1.35-.198-1.14z" fill="url(#prefix__prefix__paint5_radial_32818_103238)"/><path d="M61.79 78.674L23.961 85.24l2.031-6.245 31.78-5.517 4.018 5.196z" fill="#F09176"/><path d="M30.193 77.357l.267.188.186-.266-.453.078zm9.055-1.572l.268.189.186-.267-.453.078zm9.056-1.572l.267.189.187-.267-.454.078zm0 0l.267.189.187-.267-.454.078zm-9.056 1.572l.268.189.186-.267-.453.078zm-9.055 1.572l.267.188.186-.266-.453.078zm18.111-3.144l.267.189.187-.267-.454.078zm-9.056 1.572l.268.189.186-.267-.453.078zm-9.055 1.572l.267.188.186-.266-.453.078zm18.111-3.144l.267.189.187-.267-.454.078zm-9.056 1.572l.268.189.186-.267-.453.078zm-9.055 1.572l.267.188.186-.266-.453.078zm18.111-3.144l.267.189.187-.267-.454.078zm-9.056 1.572l.268.189.186-.267-.453.078zm-9.055 1.572l.267.188.186-.266-.453.078zm18.111-3.144l.267.189.187-.267-.454.078zm-8.788 1.76l.186-.266-.453.078.267.189zm-9.056 1.572l.186-.266-.453.078.267.188zm26.079-8.552l-30.89 5.363a.446.446 0 00-.363.517l.715 4.12 31.776-5.516-.716-4.12a.448.448 0 00-.522-.364zm.2 3.757l-30.016 5.21-.486-2.798 30.016-5.21.486 2.797zm-26.546 4.607l.267.188.186-.266-.453.078zm9.055-1.572l.268.189.186-.267-.453.078zm9.056-1.572l.267.189.187-.267-.454.078zm-18.111 3.144l.267.188.186-.266-.453.078zm9.055-1.572l.268.189.186-.267-.453.078zm9.056-1.572l.267.189.187-.267-.454.078zm-18.111 3.144l.267.188.186-.266-.453.078zm9.055-1.572l.268.189.186-.267-.453.078zm9.056-1.572l.267.189.187-.267-.454.078zm-18.111 3.144l.267.188.186-.266-.453.078zm9.055-1.572l.268.189.186-.267-.453.078zm9.056-1.572l.267.189.187-.267-.454.078z" fill="#484E66"/><path d="M30.823 77.802l-.284.403-.558.097-1.032-.729-2.612-1.837-1.033-.729-.023-.134a.446.446 0 01.363-.517l.229-.04 1.033.73 3.035 2.134.252.177.267.188.363.257z" fill="#484E66"/><path d="M34.672 73.114l-.257.362-.212.303-.158.225-2.883 4.094-.56.097-.036-.027-.363-.257 3.485-4.948.62-.108v.002l.364.257z" fill="#484E66"/><path d="M39.879 76.23l-.257.365-.027.038-.558.097-4.115-2.898-.204-.143-.303-.213-.364-.255.257-.365.003-.002.62-.108 1.032.727 3.015 2.123.27.19.63.445z" fill="#484E66"/><path d="M43.73 71.54l-.255.366-.214.3-3.04 4.318-.559.097-.403-.284.255-.364.188-.267.162-.23 2.88-4.087.62-.107h.003l.363.258z" fill="#484E66"/><path d="M48.934 74.66l-.283.402-.558.097-4.985-3.51.259-.365v-.001l.62-.108 1.034.727 2.991 2.108.292.204.268.188.362.257zm8.729-1.807l.108.625-.621.108-1.033-.73-3.122-2.195-.166-.116-.3-.214-.365-.255.258-.365v-.002l.62-.107 1.034.727 2.552 1.795 1.035.729z" fill="#484E66"/><path d="M52.787 69.968l-.257.363-.214.303-.186.265-2.855 4.054-.558.097-.038-.027-.365-.257 3.485-4.948.621-.108.002.002.365.256zM30.22 73.564l-.88.153.785 4.527.88-.153-.786-4.527zm4.52-.785l-.88.153.785 4.527.88-.153-.786-4.527zm4.519-.784l-.88.152.786 4.527.88-.152-.786-4.527zm4.517-.785l-.88.153.786 4.527.88-.153-.786-4.526z" fill="#484E66"/><path d="M48.298 70.425l-.88.153.786 4.527.88-.153-.786-4.527zm4.52-.784l-.88.153.786 4.527.88-.153-.786-4.527z" fill="#484E66"/><path d="M45.534 81.496l-5.318.923-.273-5.846 3.877-.673 1.714 5.596zm-8.894-4.349l-.225 5.932-3.871.672.716-6.017 3.38-.587zm-6.589 1.143l-1.27 6.114-4.82.837 2.031-6.246 4.06-.705zm17.075-2.964l2.21 5.51 3.871-.672-2.702-5.424-3.38.586zm6.588-1.142l3.256 5.328 4.82-.837-4.017-5.196-4.06.705z" fill="#D64123"/><path d="M108.237 60.743C96.204 72.8 92.822 69.41 80.789 81.468L97.58 98.282c12.036-12.055 15.416-8.669 27.452-20.724l-16.796-16.815z" fill="#EDF9F8"/><path d="M107.739 65.317l6.825 6.841m-9.323-4.153l12.326 12.349m-15.36-10.2l12.326 12.35M98.939 72.071l12.329 12.349M95.463 73.775l12.329 12.35M92.314 75.807l12.325 12.352M89.292 77.97l12.326 12.349M86.386 80.244l12.326 12.349" stroke="#72768A" stroke-width="1.75" stroke-miterlimit="10"/><path style="mix-blend-mode:multiply" d="M106.96 56.86c-12.033 12.056-15.416 8.667-27.449 20.725L96.295 94.4c12.032-12.056 15.415-8.67 27.451-20.725L106.96 56.86z" fill="url(#prefix__prefix__paint6_radial_32818_103238)"/><path d="M106.96 54.389c-12.033 12.058-15.416 8.67-27.449 20.724l16.784 16.815c12.032-12.055 15.415-8.666 27.451-20.722L106.96 54.39z" fill="#EDF9F8"/><path d="M106.462 58.967l6.825 6.837m-9.324-4.15l12.326 12.35M100.93 63.8l12.325 12.35M97.662 65.717l12.326 12.349M94.186 67.424l12.325 12.349M91.037 69.456l12.325 12.349M88.015 71.618l12.326 12.349M85.106 73.894l12.329 12.348" stroke="#72768A" stroke-width="1.75" stroke-miterlimit="10"/><path d="M102.637 30.221l-8.326-2.437a.813.813 0 00-1.009.553l-5.12 17.553a.815.815 0 00.552 1.01l8.327 2.439a.813.813 0 001.009-.554l5.12-17.553a.815.815 0 00-.553-1.01z" fill="#202945"/><path d="M102.754 31.295l-5.022 17.21a.596.596 0 01-.735.403l-7.999-2.34a.595.595 0 01-.402-.74l5.019-17.21a.599.599 0 01.738-.403l1.34.393a.311.311 0 01.202.368l-.066.225a.313.313 0 00.2.368l4.183 1.227a.311.311 0 00.368-.203l.065-.225a.312.312 0 01.368-.203l1.339.39c.015.005.03.011.044.02a.596.596 0 01.358.72z" fill="#DCF5F3"/><path d="M102.364 32.627l-2.42 8.295-10.516 5.77-.43-.125a.595.595 0 01-.402-.74l1.96-6.718 11.808-6.482zm-2.809 9.635l-.611 2.09-6.096 3.343-2.084-.612 8.79-4.821zm3.211-11.013L90.957 37.72l.312-1.045 11.132-6.108a.6.6 0 01.365.68z" fill="#FFF"/><path d="M53.955 52.877c-1.191.323-2.411.53-3.642.617l-.378-5.325a13.787 13.787 0 005.116-1.392l.14-.068 1.115 2.427 1.296 2.33-.112.06a19.204 19.204 0 01-3.535 1.35zm-11.034-.316a19.002 19.002 0 01-6.475-3.682l3.498-4.036a13.742 13.742 0 004.668 2.653l-1.691 5.065zm20.467-5.606l-4.035-3.496a13.745 13.745 0 002.657-4.667l5.056 1.692a19.054 19.054 0 01-3.678 6.471zM31.886 43.01l-.01-.035a19.239 19.239 0 01-1.361-3.534 19.025 19.025 0 01-.616-3.628l5.326-.379a13.692 13.692 0 001.417 5.149l.037.078-2.042.939-2.752 1.41zm36.129-9.916l-5.32.38a13.596 13.596 0 00-.445-2.627c-.24-.88-.567-1.735-.976-2.55l-.01-.04.007.03 4.746-2.43.026.05a19.079 19.079 0 011.97 7.188h.002zm-32.118-2.99L30.83 28.42a19.027 19.027 0 013.678-6.477l4.04 3.495a13.719 13.719 0 00-2.652 4.666zm22.064-6.075a13.71 13.71 0 00-4.671-2.646l1.682-5.067a19.025 19.025 0 016.48 3.675l-3.491 4.038zm-15.19-1.877l-1.379-2.798-1.01-1.984.04-.01a19.2 19.2 0 017.157-1.969l.384 5.326a13.75 13.75 0 00-5.155 1.419l-.037.016zm-1.378-2.796l.199.402-.2-.402z" fill="#2C8EE9"/><path d="M61.249 28.255l.01.04c.41.815.736 1.67.976 2.55.24.86.393 1.74.46 2.628l3.8-.269a17.597 17.597 0 00-1.825-6.651l-3.399 1.734-.022-.032zM59.354 43.46l2.877 2.496a17.647 17.647 0 003.393-5.954l-3.619-1.213a13.746 13.746 0 01-2.651 4.672zm-4.165 3.244l-.14.068a13.806 13.806 0 01-5.116 1.392l.269 3.8a17.647 17.647 0 006.66-1.832l-.557-1-1.116-2.428zM39.94 44.843l-2.495 2.877a17.645 17.645 0 005.956 3.39l1.214-3.619a13.744 13.744 0 01-4.675-2.648zm-3.262-4.175l-.037-.078a13.698 13.698 0 01-1.418-5.16l-3.801.272a17.615 17.615 0 001.817 6.617l1.404-.714 2.035-.937z" fill="#2C8EE9"/><path d="M61.249 28.255l.01.04c.41.815.736 1.67.976 2.55.24.86.393 1.74.46 2.628l3.8-.269a17.597 17.597 0 00-1.825-6.651l-3.399 1.734-.022-.032z" fill="url(#prefix__prefix__paint7_radial_32818_103238)"/><path d="M59.354 43.46l2.877 2.496a17.647 17.647 0 003.393-5.954l-3.619-1.213a13.746 13.746 0 01-2.651 4.672z" fill="url(#prefix__prefix__paint8_radial_32818_103238)"/><path d="M55.189 46.704l-.14.068a13.806 13.806 0 01-5.116 1.392l.269 3.8a17.647 17.647 0 006.66-1.832l-.557-1-1.116-2.428z" fill="url(#prefix__prefix__paint9_radial_32818_103238)"/><path d="M39.94 44.843l-2.495 2.877a17.645 17.645 0 005.956 3.39l1.214-3.619a13.744 13.744 0 01-4.675-2.648z" fill="url(#prefix__prefix__paint10_radial_32818_103238)"/><path d="M36.678 40.668l-.037-.078a13.698 13.698 0 01-1.418-5.16l-3.801.272a17.615 17.615 0 001.817 6.617l1.404-.714 2.035-.937z" fill="url(#prefix__prefix__paint11_radial_32818_103238)"/><path d="M53.27 50.294c8.757-2.383 13.924-11.411 11.542-20.165-2.383-8.755-11.412-13.92-20.169-11.537-8.756 2.383-13.923 11.411-11.541 20.166 2.382 8.754 11.412 13.919 20.168 11.536z" fill="#2C8EE9"/><path d="M52.246 46.75C59.009 44.908 63 37.935 61.16 31.173c-1.84-6.761-8.814-10.75-15.577-8.91-6.763 1.84-10.754 8.813-8.914 15.575 1.84 6.761 8.814 10.75 15.577 8.91z" fill="url(#prefix__prefix__paint12_radial_32818_103238)"/><path d="M60.453 21.146l.998-1.155a19.028 19.028 0 00-6.479-3.675l-.481 1.448a17.678 17.678 0 015.962 3.382zM47.69 16.915l-.111-1.526a19.2 19.2 0 00-7.158 1.968l-.04.01.692 1.357a17.66 17.66 0 016.615-1.818l.002.01zm-12.023 6.027l-1.158-1a19.027 19.027 0 00-3.678 6.478l1.448.48a17.68 17.68 0 013.388-5.958z" fill="#2C8EE9"/><path d="M60.453 21.146l.998-1.155a19.028 19.028 0 00-6.479-3.675l-.481 1.448a17.678 17.678 0 015.962 3.382z" fill="url(#prefix__prefix__paint13_radial_32818_103238)"/><path d="M47.69 16.915l-.111-1.526a19.2 19.2 0 00-7.158 1.968l-.04.01.692 1.357a17.66 17.66 0 016.615-1.818l.002.01z" fill="url(#prefix__prefix__paint14_radial_32818_103238)"/><path d="M35.667 22.942l-1.158-1a19.027 19.027 0 00-3.678 6.478l1.448.48a17.68 17.68 0 013.388-5.958z" fill="url(#prefix__prefix__paint15_radial_32818_103238)"/><path d="M52.022 45.927c6.309-1.717 10.031-8.222 8.315-14.53-1.716-6.307-8.222-10.028-14.531-8.312-6.309 1.717-10.032 8.222-8.315 14.53 1.716 6.307 8.222 10.028 14.53 8.312z" fill="#E0D6FF"/><path d="M50.022 33.917l-1.15.81-5.625-9.185 6.775 8.375z" fill="url(#prefix__prefix__paint16_radial_32818_103238)"/><path d="M49.469 35.424l-.65-1.266 5.286-1.922-4.636 3.188z" fill="url(#prefix__prefix__paint17_radial_32818_103238)"/><path d="M49.516 34.054l-1.148.81-5.625-9.185 6.773 8.375z" fill="#FFD355"/><path d="M49.233 35.128l-.606-1.287 5.351-1.732-4.745 3.02z" fill="#FFD355"/><path d="M49.25 35.598a1.186 1.186 0 10-.622-2.289 1.186 1.186 0 00.623 2.289z" fill="#202945"/><path d="M51.66 44.392l-.229.063-.28-1.123.373-.101.035-.01.156.575.174.526-.237.065.008.005zm4.42-2.501l-.798-.83c.101-.095.199-.193.293-.293l.833.792a9.28 9.28 0 01-.327.331zm-9.506 2.587a10.49 10.49 0 01-.453-.12l.321-1.105c.133.038.266.074.4.105l-.268 1.12zm12.247-7.129l-1.1-.326c.04-.131.075-.265.107-.4l1.119.27a9.33 9.33 0 01-.12.455l-.006.001zm-16.923 4.59a12.179 12.179 0 01-.33-.328l.829-.799c.095.1.193.195.293.292l-.792.835zm17.033-9.9l-1.123.278-.058-.212a5.529 5.529 0 01-.05-.186l-.01-.037 1.11-.324.007.028.06.22c.02.07.05.151.07.232l-.006.002zm-19.805 5.38l-.01-.037-.054-.2c-.02-.068-.04-.146-.06-.219l1.123-.28.05.187.05.186-1.1.363zm.973-5.044l-1.12-.27c.037-.15.078-.301.12-.45l1.107.318c-.034.133-.07.266-.101.4l-.006.002zm15.418-4.215a8.23 8.23 0 00-.293-.292l.79-.838c.112.107.224.216.332.329l-.829.8zm-13.17.067l-.836-.79c.105-.113.215-.223.327-.332l.807.836c-.101.088-.2.182-.295.28l-.003.006zm9.128-2.495a8.22 8.22 0 00-.4-.105l.267-1.12c.152.037.304.075.454.118l-.32 1.107zm-5.113.029l-.33-1.11.028-.007.424-.115.278 1.123-.372.101-.028.008z" fill="#72768A"/><g opacity=".5"><path style="mix-blend-mode:overlay" d="M130.494 15.314H14L43.273 115.65h57.948l29.273-100.336z" fill="url(#prefix__prefix__paint18_radial_32818_103238)"/><path style="mix-blend-mode:overlay" d="M30.09 15.511l83.67-.197-15.219 101.899-52.215.197L30.09 15.511z" fill="url(#prefix__prefix__paint19_radial_32818_103238)"/><path style="mix-blend-mode:overlay" d="M66.756 117.151h-2.071l-5.45-80.403h7.257l.264 80.403z" fill="url(#prefix__prefix__paint20_radial_32818_103238)"/><path style="mix-blend-mode:overlay" d="M60.975 117.152l-3.461-.048-17.01-101.189 7.56-.515 12.911 101.752z" fill="url(#prefix__prefix__paint21_radial_32818_103238)"/><path style="mix-blend-mode:overlay" d="M88.71 115.775h2.923l12.394-73.663-9.747 2.776-5.57 70.887z" fill="url(#prefix__prefix__paint22_radial_32818_103238)"/><path style="mix-blend-mode:overlay" d="M85.204 89.178h2.07l4.056-59.822-5.94 3.254-.186 56.568z" fill="url(#prefix__prefix__paint23_radial_32818_103238)"/></g><path d="M30.361 115.588h84.103v14.024a2.186 2.186 0 01-2.18 2.185h-79.73a2.187 2.187 0 01-2.18-2.185v-14.024h-.013z" fill="#63F"/><path d="M41.36 111.006v9.166h4.211v-9.166H41.36zm57.963 0v9.166h4.211v-9.166h-4.211z" fill="#FFDE82"/><path d="M30.361 123.021v6.378c0 .639.254 1.252.705 1.704a2.401 2.401 0 001.7.705h79.297a2.4 2.4 0 001.7-.705 2.413 2.413 0 00.705-1.704v-6.378H30.361z" fill="url(#prefix__prefix__paint24_radial_32818_103238)"/><path d="M30.361 124.722h84.091" stroke="#C2ADFF" stroke-width="2.81" stroke-miterlimit="10" stroke-linecap="round"/><path d="M45.571 116.404H41.36v3.767h4.211v-3.767z" fill="url(#prefix__prefix__paint25_radial_32818_103238)"/><path d="M45.571 116.404H41.36v3.767h4.211v-3.767z" fill="url(#prefix__prefix__paint26_radial_32818_103238)"/><path d="M103.528 116.404h-4.211v3.767h4.211v-3.767z" fill="url(#prefix__prefix__paint27_radial_32818_103238)"/><defs><radialGradient id="prefix__prefix__paint0_radial_32818_103238" cx="0" cy="0" r="1" gradientUnits="userSpaceOnUse" gradientTransform="matrix(8.60967 0 0 8.62576 59.121 63.537)"><stop stop-color="#412BC9"/><stop offset="1" stop-color="#412BC9" stop-opacity="0"/></radialGradient><radialGradient id="prefix__prefix__paint1_radial_32818_103238" cx="0" cy="0" r="1" gradientUnits="userSpaceOnUse" gradientTransform="matrix(-8.58164 0 0 -8.59767 84.798 63.566)"><stop stop-color="#412BC9"/><stop offset="1" stop-color="#412BC9" stop-opacity="0"/></radialGradient><radialGradient id="prefix__prefix__paint2_radial_32818_103238" cx="0" cy="0" r="1" gradientUnits="userSpaceOnUse" gradientTransform="matrix(43.9641 0 0 44.0462 71.774 54.871)"><stop stop-color="#412BC9"/><stop offset="1" stop-color="#412BC9" stop-opacity="0"/></radialGradient><radialGradient id="prefix__prefix__paint3_radial_32818_103238" cx="0" cy="0" r="1" gradientUnits="userSpaceOnUse" gradientTransform="matrix(13.7836 0 0 13.8093 71.652 60.086)"><stop stop-color="#E5B20E"/><stop offset="1" stop-color="#E5B20E" stop-opacity="0"/></radialGradient><radialGradient id="prefix__prefix__paint4_radial_32818_103238" cx="0" cy="0" r="1" gradientUnits="userSpaceOnUse" gradientTransform="matrix(21.45518 -3.72419 1.48968 8.58208 41.84 79.274)"><stop stop-color="#BA3620"/><stop offset="1" stop-color="#BA3620" stop-opacity="0"/></radialGradient><radialGradient id="prefix__prefix__paint5_radial_32818_103238" cx="0" cy="0" r="1" gradientUnits="userSpaceOnUse" gradientTransform="matrix(6.00103 -1.04166 .35417 2.04037 43.852 87.894)"><stop stop-color="#BA3620"/><stop offset="1" stop-color="#BA3620" stop-opacity="0"/></radialGradient><radialGradient id="prefix__prefix__paint6_radial_32818_103238" cx="0" cy="0" r="1" gradientUnits="userSpaceOnUse" gradientTransform="matrix(33.1771 0 0 33.239 97.79 95.554)"><stop stop-color="#B8ECE9"/><stop offset="1" stop-color="#B8ECE9" stop-opacity="0"/></radialGradient><radialGradient id="prefix__prefix__paint7_radial_32818_103238" cx="0" cy="0" r="1" gradientUnits="userSpaceOnUse" gradientTransform="matrix(21.3617 -5.81298 5.81169 21.35698 50.805 41.236)"><stop offset=".01" stop-color="#412BC9"/><stop offset="1" stop-color="#412BC9" stop-opacity="0"/></radialGradient><radialGradient id="prefix__prefix__paint8_radial_32818_103238" cx="0" cy="0" r="1" gradientUnits="userSpaceOnUse" gradientTransform="matrix(21.36169 -5.81305 5.81174 21.35686 50.806 41.236)"><stop offset=".01" stop-color="#412BC9"/><stop offset="1" stop-color="#412BC9" stop-opacity="0"/></radialGradient><radialGradient id="prefix__prefix__paint9_radial_32818_103238" cx="0" cy="0" r="1" gradientUnits="userSpaceOnUse" gradientTransform="matrix(21.36169 -5.81305 5.81174 21.35686 50.806 41.237)"><stop offset=".01" stop-color="#412BC9"/><stop offset="1" stop-color="#412BC9" stop-opacity="0"/></radialGradient><radialGradient id="prefix__prefix__paint10_radial_32818_103238" cx="0" cy="0" r="1" gradientUnits="userSpaceOnUse" gradientTransform="matrix(21.3617 -5.81298 5.81169 21.35698 50.805 41.236)"><stop offset=".01" stop-color="#412BC9"/><stop offset="1" stop-color="#412BC9" stop-opacity="0"/></radialGradient><radialGradient id="prefix__prefix__paint11_radial_32818_103238" cx="0" cy="0" r="1" gradientUnits="userSpaceOnUse" gradientTransform="matrix(21.36169 -5.81305 5.81174 21.35686 50.806 41.235)"><stop offset=".01" stop-color="#412BC9"/><stop offset="1" stop-color="#412BC9" stop-opacity="0"/></radialGradient><radialGradient id="prefix__prefix__paint12_radial_32818_103238" cx="0" cy="0" r="1" gradientUnits="userSpaceOnUse" gradientTransform="matrix(22.651 -6.1639 6.16251 22.64589 47.762 29.866)"><stop stop-color="#412BC9"/><stop offset=".24" stop-color="#412BC9" stop-opacity=".73"/><stop offset=".61" stop-color="#412BC9" stop-opacity=".34"/><stop offset=".87" stop-color="#412BC9" stop-opacity=".09"/><stop offset="1" stop-color="#412BC9" stop-opacity="0"/></radialGradient><radialGradient id="prefix__prefix__paint13_radial_32818_103238" cx="0" cy="0" r="1" gradientUnits="userSpaceOnUse" gradientTransform="matrix(24.10958 -6.56073 6.55926 24.10418 41.991 11.482)"><stop stop-color="#855CFF"/><stop offset="1" stop-color="#E0D6FF" stop-opacity="0"/></radialGradient><radialGradient id="prefix__prefix__paint14_radial_32818_103238" cx="0" cy="0" r="1" gradientUnits="userSpaceOnUse" gradientTransform="matrix(24.10958 -6.56073 6.55924 24.10408 41.991 11.482)"><stop stop-color="#5C8AFF"/><stop offset="1" stop-color="#E0D6FF" stop-opacity="0"/></radialGradient><radialGradient id="prefix__prefix__paint15_radial_32818_103238" cx="0" cy="0" r="1" gradientUnits="userSpaceOnUse" gradientTransform="matrix(24.10958 -6.56073 6.55926 24.10418 41.992 11.482)"><stop stop-color="#5F5CFF"/><stop offset="1" stop-color="#E0D6FF" stop-opacity="0"/></radialGradient><radialGradient id="prefix__prefix__paint16_radial_32818_103238" cx="0" cy="0" r="1" gradientUnits="userSpaceOnUse" gradientTransform="matrix(7.27251 -1.979 1.97856 7.27088 46.291 33.718)"><stop stop-color="#E5B20E"/><stop offset="1" stop-color="#E5B20E" stop-opacity="0"/></radialGradient><radialGradient id="prefix__prefix__paint17_radial_32818_103238" cx="0" cy="0" r="1" gradientUnits="userSpaceOnUse" gradientTransform="matrix(4.67596 -1.47548 1.47515 4.67492 52.541 35.766)"><stop stop-color="#E5B20E"/><stop offset="1" stop-color="#E5B20E" stop-opacity="0"/></radialGradient><radialGradient id="prefix__prefix__paint18_radial_32818_103238" cx="0" cy="0" r="1" gradientUnits="userSpaceOnUse" gradientTransform="matrix(122.177 0 0 108.487 73.75 126.074)"><stop stop-color="#E0D6FF"/><stop offset="1" stop-color="#C2ADFF" stop-opacity="0"/></radialGradient><radialGradient id="prefix__prefix__paint19_radial_32818_103238" cx="0" cy="0" r="1" gradientUnits="userSpaceOnUse" gradientTransform="matrix(106.14 0 0 84.3148 79.973 117.707)"><stop stop-color="#FFF"/><stop offset="1" stop-color="#FFF" stop-opacity="0"/></radialGradient><radialGradient id="prefix__prefix__paint20_radial_32818_103238" cx="0" cy="0" r="1" gradientUnits="userSpaceOnUse" gradientTransform="matrix(64.458 0 0 58.8734 65.742 99.046)"><stop stop-color="#FFF"/><stop offset="1" stop-color="#FFF" stop-opacity="0"/></radialGradient><radialGradient id="prefix__prefix__paint21_radial_32818_103238" cx="0" cy="0" r="1" gradientUnits="userSpaceOnUse" gradientTransform="matrix(81.9587 0 0 74.8579 58.212 94.237)"><stop stop-color="#FFF"/><stop offset="1" stop-color="#FFF" stop-opacity="0"/></radialGradient><radialGradient id="prefix__prefix__paint22_radial_32818_103238" cx="0" cy="0" r="1" gradientUnits="userSpaceOnUse" gradientTransform="matrix(29.03737 2.27815 -2.2083 28.1471 96.118 85.847)"><stop stop-color="#FFF"/><stop offset="1" stop-color="#FFF" stop-opacity="0"/></radialGradient><radialGradient id="prefix__prefix__paint23_radial_32818_103238" cx="0" cy="0" r="1" gradientUnits="userSpaceOnUse" gradientTransform="matrix(23.2566 0 0 28.6763 87.238 63.478)"><stop stop-color="#FFF"/><stop offset="1" stop-color="#FFF" stop-opacity="0"/></radialGradient><radialGradient id="prefix__prefix__paint24_radial_32818_103238" cx="0" cy="0" r="1" gradientUnits="userSpaceOnUse" gradientTransform="matrix(59.1899 0 0 59.3001 73.07 112.778)"><stop stop-color="#412BC9"/><stop offset=".24" stop-color="#412BC9" stop-opacity=".73"/><stop offset=".61" stop-color="#412BC9" stop-opacity=".34"/><stop offset=".87" stop-color="#412BC9" stop-opacity=".09"/><stop offset="1" stop-color="#412BC9" stop-opacity="0"/></radialGradient><radialGradient id="prefix__prefix__paint25_radial_32818_103238" cx="0" cy="0" r="1" gradientUnits="userSpaceOnUse" gradientTransform="matrix(3.79399 0 0 3.80108 42.802 115.864)"><stop stop-color="#E5B20E"/><stop offset="1" stop-color="#E5B20E" stop-opacity="0"/></radialGradient><radialGradient id="prefix__prefix__paint26_radial_32818_103238" cx="0" cy="0" r="1" gradientUnits="userSpaceOnUse" gradientTransform="matrix(4.99947 0 0 5.00881 43.612 115.74)"><stop stop-color="#E5B20E"/><stop offset="1" stop-color="#E5B20E" stop-opacity="0"/></radialGradient><radialGradient id="prefix__prefix__paint27_radial_32818_103238" cx="0" cy="0" r="1" gradientUnits="userSpaceOnUse" gradientTransform="matrix(4.99947 0 0 5.00881 101.569 115.74)"><stop stop-color="#E5B20E"/><stop offset="1" stop-color="#E5B20E" stop-opacity="0"/></radialGradient></defs></svg>