<svg viewBox="0 0 14 14" xmlns="http://www.w3.org/2000/svg"><path d="M6.557.96c-.752.077-1.405.37-1.732.777-.169.21-.216.349-.217.631 0 .209.008.249.068.38.078.169.188.276.305.298.278.053.499-.237.371-.485-.104-.202-.084-.313.086-.472.369-.345 1.192-.523 1.993-.431.491.056.967.247 1.165.467l.108.121-.004.19c-.007.267.057.376.257.433.167.048.374-.084.421-.269.069-.274 0-.595-.18-.832-.45-.594-1.524-.923-2.641-.808m.221 1.39c-.271.038-.551.16-.784.342a1.628 1.628 0 00-.526.773c-.051.156-.061.231-.062.455-.002.49.162.865.524 1.2.158.146.486.339.577.34.021.001-.048.036-.153.078-.738.3-1.223.922-1.404 1.802-.058.281-.078.595-.097 1.538a19.004 19.004 0 01-.047 1.176c-.07.464-.276.946-.505 1.181-.075.077-.186.18-.246.228-.134.107-.179.23-.136.374.058.192.473.554.861.75.534.27 1.317.444 2.115.472 1.376.047 2.579-.36 3.081-1.044.165-.224.154-.362-.045-.578a2.557 2.557 0 01-.611-1.104c-.089-.342-.105-.523-.126-1.466-.022-.995-.042-1.21-.152-1.636-.204-.794-.584-1.306-1.19-1.607a2.858 2.858 0 00-.298-.131c-.059-.013-.047-.023.145-.119a1.66 1.66 0 00.867-1.081c.016-.057.028-.225.027-.373-.001-.222-.011-.301-.061-.455a1.597 1.597 0 00-.846-.972 1.652 1.652 0 00-.908-.143m.449.71a.906.906 0 01.416.247c.425.424.305 1.166-.23 1.429a.898.898 0 01-1.302-.657.905.905 0 011.116-1.019M9.48 4.646c-.335.032-.685.176-1.014.42-.294.218-.382.367-.323.546a.41.41 0 00.266.234c.124.023.204-.005.342-.12.562-.468 1.11-.529 1.505-.168.292.268.406.581.642 1.769.27 1.365.42 1.91.662 2.418.138.288.266.489.438.691l.115.134h-.107a.982.982 0 01-.253-.049c-.406-.136-.742-.452-1.023-.965-.118-.214-.212-.293-.351-.293a.328.328 0 00-.34.302c-.009.095.001.143.061.27.1.213.298.508.46.686.109.118.125.145.079.131a1.005 1.005 0 01-.582-.513.759.759 0 00-.14-.207.34.34 0 00-.56.27c0 .101.128.366.263.543.195.256.48.452.831.57.307.102.399.096.545-.04.058-.055.105-.185.091-.256-.008-.04-.008-.04.21.064.506.242 1.036.247 1.453.014.319-.178.445-.358.385-.546-.037-.114-.079-.16-.229-.244a1.692 1.692 0 01-.526-.516c-.33-.5-.467-.937-.773-2.458a22.442 22.442 0 00-.279-1.256c-.195-.641-.505-1.049-.975-1.279a1.511 1.511 0 00-.873-.152m-5.548.041c-.505.147-.865.469-1.109.991-.14.298-.22.607-.431 1.66-.304 1.516-.441 1.952-.772 2.453a1.692 1.692 0 01-.526.516c-.15.084-.192.13-.229.244a.28.28 0 00-.002.179c.048.18.392.416.734.504.385.099.893-.003 1.318-.264l.108-.067-.001.135c0 .156.048.241.176.309.177.094.637-.043.968-.288.26-.192.539-.585.583-.821.037-.202-.163-.409-.374-.386-.146.017-.221.083-.326.286-.15.292-.393.479-.724.559-.065.016-.06.007.072-.131.19-.2.312-.37.452-.632.138-.257.153-.378.065-.51-.141-.21-.457-.206-.574.007-.324.592-.618.901-1.006 1.059-.135.055-.393.108-.426.088-.01-.006.039-.077.109-.159.169-.2.277-.371.424-.677.238-.493.391-1.053.661-2.415.179-.901.279-1.257.421-1.496.234-.394.622-.574 1.03-.479.257.06.37.124.752.421.122.094.277.108.386.033.13-.089.178-.171.176-.302-.003-.146-.04-.198-.29-.4a2.324 2.324 0 00-.803-.414c-.239-.06-.639-.062-.842-.003m3.512 1.505c.191.078.449.271.566.423.2.262.367.705.436 1.156.015.096.036.594.047 1.107.021.961.042 1.189.14 1.575.108.424.297.833.525 1.137l.126.169-.086.071c-.209.172-.689.366-1.125.453-.513.102-1.369.109-1.9.015-.562-.099-1.003-.256-1.335-.475l-.073-.049.127-.157c.238-.294.409-.652.524-1.094.1-.384.117-.587.138-1.656.021-1.088.041-1.323.141-1.645.066-.215.142-.362.285-.557.139-.188.291-.315.512-.426.216-.109.295-.125.566-.116.187.006.264.02.386.069" fill="currentColor"/></svg>