<svg viewBox="0 0 12 12" xmlns="http://www.w3.org/2000/svg"><path d="M3.75.375c0-.207.168-.375.375-.375h1.5C5.832 0 6 .168 6 .375V.75h.375c.207 0 .375.168.375.375v1.148a.376.376 0 01.083-.002 4.875 4.875 0 012.14 8.979h1.902a.375.375 0 010 .75h-9.75a.375.375 0 010-.75h5.25a4.125 4.125 0 00.375-8.233v4.108a.375.375 0 01-.375.375H6v.375a1.125 1.125 0 01-2.25 0V7.5h-.375A.375.375 0 013 7.125v-6c0-.207.168-.375.375-.375h.375V.375zM4.5 7.5v.375a.375.375 0 10.75 0V7.5H4.5zm-.75-.75H6V1.5H3.75v5.25zm-1.125 3a.375.375 0 100 .75h4.5a.375.375 0 000-.75h-4.5z" fill="currentColor"/></svg>