<svg viewBox="0 0 12 12" xmlns="http://www.w3.org/2000/svg"><path d="M.38 1.236A1.286 1.286 0 011.665 0h.922c.69 0 1.258.546 1.285 1.236l.362 9.429A1.286 1.286 0 012.95 12H1.302c-.73 0-1.312-.606-1.284-1.335L.38 1.236zM1.665.857c-.23 0-.42.182-.428.412l-.363 9.429a.429.429 0 00.428.445H2.95a.429.429 0 00.429-.445l-.363-9.429a.429.429 0 00-.428-.412h-.922zM10.697 12c.71 0 1.286-.576 1.286-1.286V3a.429.429 0 00-.732-.303L8.554 5.394V3a.429.429 0 00-.713-.32L4.886 5.307l.043 1.108 2.768-2.46v2.474a.429.429 0 00.732.303l2.697-2.697v6.68a.429.429 0 01-.429.428h-.428V8.57a.857.857 0 00-.857-.857H6.84a.857.857 0 00-.857.857v2.572H5.05a2.134 2.134 0 01-.386.857h6.033zm-3.857-.857V8.57h2.572v2.572H6.84z" fill="currentColor"/></svg>